<mxfile host="app.diagrams.net" agent="Mozilla/5.0 (Windows NT 10.0; Win64; x64) AppleWebKit/537.36 (KHTML, like Gecko) Chrome/127.0.0.0 Safari/537.36" version="24.7.7" pages="2">
  <diagram name="Hosting Options" id="TRHEweLZq3vptfCPpuQY">
    <mxGraphModel dx="2394" dy="1194" grid="1" gridSize="10" guides="1" tooltips="1" connect="1" arrows="1" fold="1" page="1" pageScale="1" pageWidth="850" pageHeight="1100" math="0" shadow="0">
      <root>
        <mxCell id="0" />
        <mxCell id="1" parent="0" />
        <mxCell id="UImh5uyEVB4ngB7Q_Of0-1" value="Hardware" style="rounded=0;whiteSpace=wrap;html=1;" parent="1" vertex="1">
          <mxGeometry x="40" y="770" width="200" height="60" as="geometry" />
        </mxCell>
        <mxCell id="UImh5uyEVB4ngB7Q_Of0-4" value="Hardware" style="rounded=0;whiteSpace=wrap;html=1;" parent="1" vertex="1">
          <mxGeometry x="400" y="770" width="200" height="60" as="geometry" />
        </mxCell>
        <mxCell id="UImh5uyEVB4ngB7Q_Of0-5" value="Hardware" style="rounded=0;whiteSpace=wrap;html=1;" parent="1" vertex="1">
          <mxGeometry x="760" y="770" width="200" height="60" as="geometry" />
        </mxCell>
        <mxCell id="UImh5uyEVB4ngB7Q_Of0-6" value="Hardware" style="rounded=0;whiteSpace=wrap;html=1;" parent="1" vertex="1">
          <mxGeometry x="1120" y="770" width="200" height="60" as="geometry" />
        </mxCell>
        <mxCell id="UImh5uyEVB4ngB7Q_Of0-7" value="Hardware" style="rounded=0;whiteSpace=wrap;html=1;" parent="1" vertex="1">
          <mxGeometry x="1480" y="770" width="200" height="60" as="geometry" />
        </mxCell>
        <mxCell id="UImh5uyEVB4ngB7Q_Of0-8" value="Operating System" style="rounded=0;whiteSpace=wrap;html=1;" parent="1" vertex="1">
          <mxGeometry x="40" y="660" width="200" height="60" as="geometry" />
        </mxCell>
        <mxCell id="UImh5uyEVB4ngB7Q_Of0-9" value="Operating System" style="rounded=0;whiteSpace=wrap;html=1;" parent="1" vertex="1">
          <mxGeometry x="400" y="660" width="200" height="60" as="geometry" />
        </mxCell>
        <mxCell id="UImh5uyEVB4ngB7Q_Of0-10" value="Operating System" style="rounded=0;whiteSpace=wrap;html=1;" parent="1" vertex="1">
          <mxGeometry x="760" y="660" width="200" height="60" as="geometry" />
        </mxCell>
        <mxCell id="UImh5uyEVB4ngB7Q_Of0-11" value="Operating System" style="rounded=0;whiteSpace=wrap;html=1;" parent="1" vertex="1">
          <mxGeometry x="1120" y="660" width="200" height="60" as="geometry" />
        </mxCell>
        <mxCell id="UImh5uyEVB4ngB7Q_Of0-12" value="Operating System" style="rounded=0;whiteSpace=wrap;html=1;" parent="1" vertex="1">
          <mxGeometry x="1480" y="660" width="200" height="60" as="geometry" />
        </mxCell>
        <mxCell id="UImh5uyEVB4ngB7Q_Of0-13" value="Hypervisor" style="rounded=0;whiteSpace=wrap;html=1;" parent="1" vertex="1">
          <mxGeometry x="400" y="550" width="200" height="60" as="geometry" />
        </mxCell>
        <mxCell id="UImh5uyEVB4ngB7Q_Of0-14" value="Hypervisor" style="rounded=0;whiteSpace=wrap;html=1;" parent="1" vertex="1">
          <mxGeometry x="760" y="550" width="200" height="60" as="geometry" />
        </mxCell>
        <mxCell id="UImh5uyEVB4ngB7Q_Of0-16" value="Hypervisor" style="rounded=0;whiteSpace=wrap;html=1;" parent="1" vertex="1">
          <mxGeometry x="1120" y="550" width="200" height="60" as="geometry" />
        </mxCell>
        <mxCell id="UImh5uyEVB4ngB7Q_Of0-17" value="Kubernetes" style="rounded=0;whiteSpace=wrap;html=1;" parent="1" vertex="1">
          <mxGeometry x="1480" y="550" width="200" height="60" as="geometry" />
        </mxCell>
        <mxCell id="UImh5uyEVB4ngB7Q_Of0-18" value="VM" style="rounded=0;whiteSpace=wrap;html=1;verticalAlign=top;align=center;" parent="1" vertex="1">
          <mxGeometry x="400" y="360" width="100" height="150" as="geometry" />
        </mxCell>
        <mxCell id="UImh5uyEVB4ngB7Q_Of0-19" value="OS" style="rounded=0;whiteSpace=wrap;html=1;verticalAlign=top;align=center;" parent="1" vertex="1">
          <mxGeometry x="410" y="390" width="80" height="110" as="geometry" />
        </mxCell>
        <mxCell id="UImh5uyEVB4ngB7Q_Of0-20" value="App" style="rounded=0;whiteSpace=wrap;html=1;verticalAlign=middle;align=center;" parent="1" vertex="1">
          <mxGeometry x="420" y="430" width="60" height="60" as="geometry" />
        </mxCell>
        <mxCell id="UImh5uyEVB4ngB7Q_Of0-21" value="VM" style="rounded=0;whiteSpace=wrap;html=1;verticalAlign=top;align=center;" parent="1" vertex="1">
          <mxGeometry x="500" y="360" width="100" height="150" as="geometry" />
        </mxCell>
        <mxCell id="UImh5uyEVB4ngB7Q_Of0-22" value="OS" style="rounded=0;whiteSpace=wrap;html=1;verticalAlign=top;align=center;" parent="1" vertex="1">
          <mxGeometry x="510" y="390" width="80" height="110" as="geometry" />
        </mxCell>
        <mxCell id="UImh5uyEVB4ngB7Q_Of0-23" value="App" style="rounded=0;whiteSpace=wrap;html=1;verticalAlign=middle;align=center;" parent="1" vertex="1">
          <mxGeometry x="520" y="430" width="60" height="60" as="geometry" />
        </mxCell>
        <mxCell id="UImh5uyEVB4ngB7Q_Of0-24" value="VM" style="rounded=0;whiteSpace=wrap;html=1;verticalAlign=bottom;align=center;" parent="1" vertex="1">
          <mxGeometry x="760" y="440" width="100" height="80" as="geometry" />
        </mxCell>
        <mxCell id="UImh5uyEVB4ngB7Q_Of0-25" value="OS" style="rounded=0;whiteSpace=wrap;html=1;verticalAlign=middle;align=center;" parent="1" vertex="1">
          <mxGeometry x="770" y="450" width="80" height="50" as="geometry" />
        </mxCell>
        <mxCell id="UImh5uyEVB4ngB7Q_Of0-26" value="VM" style="rounded=0;whiteSpace=wrap;html=1;verticalAlign=bottom;align=center;" parent="1" vertex="1">
          <mxGeometry x="860" y="440" width="100" height="80" as="geometry" />
        </mxCell>
        <mxCell id="UImh5uyEVB4ngB7Q_Of0-27" value="OS" style="rounded=0;whiteSpace=wrap;html=1;verticalAlign=middle;align=center;" parent="1" vertex="1">
          <mxGeometry x="870" y="450" width="80" height="50" as="geometry" />
        </mxCell>
        <mxCell id="UImh5uyEVB4ngB7Q_Of0-28" value="Kubernetes" style="rounded=0;whiteSpace=wrap;html=1;" parent="1" vertex="1">
          <mxGeometry x="760" y="340" width="200" height="60" as="geometry" />
        </mxCell>
        <mxCell id="UImh5uyEVB4ngB7Q_Of0-29" value="Container" style="rounded=0;whiteSpace=wrap;html=1;verticalAlign=bottom;align=center;" parent="1" vertex="1">
          <mxGeometry x="760" y="240" width="100" height="80" as="geometry" />
        </mxCell>
        <mxCell id="UImh5uyEVB4ngB7Q_Of0-30" value="App" style="rounded=0;whiteSpace=wrap;html=1;verticalAlign=middle;align=center;" parent="1" vertex="1">
          <mxGeometry x="770" y="250" width="80" height="50" as="geometry" />
        </mxCell>
        <mxCell id="UImh5uyEVB4ngB7Q_Of0-31" value="Container" style="rounded=0;whiteSpace=wrap;html=1;verticalAlign=bottom;align=center;" parent="1" vertex="1">
          <mxGeometry x="860" y="240" width="100" height="80" as="geometry" />
        </mxCell>
        <mxCell id="UImh5uyEVB4ngB7Q_Of0-32" value="App" style="rounded=0;whiteSpace=wrap;html=1;verticalAlign=middle;align=center;" parent="1" vertex="1">
          <mxGeometry x="870" y="250" width="80" height="50" as="geometry" />
        </mxCell>
        <mxCell id="UImh5uyEVB4ngB7Q_Of0-37" value="Hardware" style="rounded=0;whiteSpace=wrap;html=1;" parent="1" vertex="1">
          <mxGeometry x="1840" y="770" width="200" height="60" as="geometry" />
        </mxCell>
        <mxCell id="UImh5uyEVB4ngB7Q_Of0-38" value="Operating System" style="rounded=0;whiteSpace=wrap;html=1;" parent="1" vertex="1">
          <mxGeometry x="1840" y="660" width="200" height="60" as="geometry" />
        </mxCell>
        <mxCell id="UImh5uyEVB4ngB7Q_Of0-39" value="Kubernetes" style="rounded=0;whiteSpace=wrap;html=1;" parent="1" vertex="1">
          <mxGeometry x="1840" y="550" width="200" height="60" as="geometry" />
        </mxCell>
        <mxCell id="UImh5uyEVB4ngB7Q_Of0-40" value="Container" style="rounded=0;whiteSpace=wrap;html=1;verticalAlign=bottom;align=center;" parent="1" vertex="1">
          <mxGeometry x="1840" y="440" width="100" height="80" as="geometry" />
        </mxCell>
        <mxCell id="UImh5uyEVB4ngB7Q_Of0-41" value="App" style="rounded=0;whiteSpace=wrap;html=1;verticalAlign=middle;align=center;" parent="1" vertex="1">
          <mxGeometry x="1850" y="450" width="80" height="50" as="geometry" />
        </mxCell>
        <mxCell id="UImh5uyEVB4ngB7Q_Of0-42" value="Container" style="rounded=0;whiteSpace=wrap;html=1;verticalAlign=bottom;align=center;" parent="1" vertex="1">
          <mxGeometry x="1940" y="440" width="100" height="80" as="geometry" />
        </mxCell>
        <mxCell id="UImh5uyEVB4ngB7Q_Of0-43" value="App" style="rounded=0;whiteSpace=wrap;html=1;verticalAlign=middle;align=center;" parent="1" vertex="1">
          <mxGeometry x="1950" y="450" width="80" height="50" as="geometry" />
        </mxCell>
        <mxCell id="UImh5uyEVB4ngB7Q_Of0-44" value="App" style="rounded=0;whiteSpace=wrap;html=1;verticalAlign=middle;align=center;" parent="1" vertex="1">
          <mxGeometry x="40" y="580" width="80" height="50" as="geometry" />
        </mxCell>
        <mxCell id="UImh5uyEVB4ngB7Q_Of0-45" value="App" style="rounded=0;whiteSpace=wrap;html=1;verticalAlign=middle;align=center;" parent="1" vertex="1">
          <mxGeometry x="160" y="580" width="80" height="50" as="geometry" />
        </mxCell>
        <mxCell id="UImh5uyEVB4ngB7Q_Of0-46" value="VM" style="rounded=0;whiteSpace=wrap;html=1;verticalAlign=bottom;align=center;" parent="1" vertex="1">
          <mxGeometry x="1120" y="440" width="100" height="80" as="geometry" />
        </mxCell>
        <mxCell id="UImh5uyEVB4ngB7Q_Of0-47" value="OS" style="rounded=0;whiteSpace=wrap;html=1;verticalAlign=middle;align=center;" parent="1" vertex="1">
          <mxGeometry x="1130" y="450" width="80" height="50" as="geometry" />
        </mxCell>
        <mxCell id="UImh5uyEVB4ngB7Q_Of0-48" value="VM" style="rounded=0;whiteSpace=wrap;html=1;verticalAlign=bottom;align=center;" parent="1" vertex="1">
          <mxGeometry x="1220" y="440" width="100" height="80" as="geometry" />
        </mxCell>
        <mxCell id="UImh5uyEVB4ngB7Q_Of0-49" value="OS" style="rounded=0;whiteSpace=wrap;html=1;verticalAlign=middle;align=center;" parent="1" vertex="1">
          <mxGeometry x="1230" y="450" width="80" height="50" as="geometry" />
        </mxCell>
        <mxCell id="UImh5uyEVB4ngB7Q_Of0-50" value="Kubernetes" style="rounded=0;whiteSpace=wrap;html=1;" parent="1" vertex="1">
          <mxGeometry x="1120" y="340" width="200" height="60" as="geometry" />
        </mxCell>
        <mxCell id="UImh5uyEVB4ngB7Q_Of0-51" value="OS-Container" style="rounded=0;whiteSpace=wrap;html=1;verticalAlign=bottom;align=center;" parent="1" vertex="1">
          <mxGeometry x="1120" y="120" width="100" height="80" as="geometry" />
        </mxCell>
        <mxCell id="UImh5uyEVB4ngB7Q_Of0-52" value="App" style="rounded=0;whiteSpace=wrap;html=1;verticalAlign=middle;align=center;" parent="1" vertex="1">
          <mxGeometry x="1130" y="130" width="80" height="50" as="geometry" />
        </mxCell>
        <mxCell id="UImh5uyEVB4ngB7Q_Of0-53" value="OS-Container" style="rounded=0;whiteSpace=wrap;html=1;verticalAlign=bottom;align=center;" parent="1" vertex="1">
          <mxGeometry x="1220" y="120" width="100" height="80" as="geometry" />
        </mxCell>
        <mxCell id="UImh5uyEVB4ngB7Q_Of0-54" value="App" style="rounded=0;whiteSpace=wrap;html=1;verticalAlign=middle;align=center;" parent="1" vertex="1">
          <mxGeometry x="1230" y="130" width="80" height="50" as="geometry" />
        </mxCell>
        <mxCell id="UImh5uyEVB4ngB7Q_Of0-55" value="Type-2 Hypervisor" style="rounded=0;whiteSpace=wrap;html=1;" parent="1" vertex="1">
          <mxGeometry x="1120" y="240" width="200" height="60" as="geometry" />
        </mxCell>
        <mxCell id="UImh5uyEVB4ngB7Q_Of0-56" value="OS-Container" style="rounded=0;whiteSpace=wrap;html=1;verticalAlign=bottom;align=center;" parent="1" vertex="1">
          <mxGeometry x="1480" y="340" width="100" height="80" as="geometry" />
        </mxCell>
        <mxCell id="UImh5uyEVB4ngB7Q_Of0-57" value="App" style="rounded=0;whiteSpace=wrap;html=1;verticalAlign=middle;align=center;" parent="1" vertex="1">
          <mxGeometry x="1490" y="350" width="80" height="50" as="geometry" />
        </mxCell>
        <mxCell id="UImh5uyEVB4ngB7Q_Of0-58" value="OS-Container" style="rounded=0;whiteSpace=wrap;html=1;verticalAlign=bottom;align=center;" parent="1" vertex="1">
          <mxGeometry x="1580" y="340" width="100" height="80" as="geometry" />
        </mxCell>
        <mxCell id="UImh5uyEVB4ngB7Q_Of0-59" value="App" style="rounded=0;whiteSpace=wrap;html=1;verticalAlign=middle;align=center;" parent="1" vertex="1">
          <mxGeometry x="1590" y="350" width="80" height="50" as="geometry" />
        </mxCell>
        <mxCell id="UImh5uyEVB4ngB7Q_Of0-60" value="Type-2 Hypervisor" style="rounded=0;whiteSpace=wrap;html=1;" parent="1" vertex="1">
          <mxGeometry x="1480" y="460" width="200" height="60" as="geometry" />
        </mxCell>
        <mxCell id="UImh5uyEVB4ngB7Q_Of0-69" value="" style="endArrow=none;html=1;rounded=0;strokeColor=#FF8000;strokeWidth=2;" parent="1" edge="1">
          <mxGeometry width="50" height="50" relative="1" as="geometry">
            <mxPoint x="620" y="330" as="sourcePoint" />
            <mxPoint x="1400" y="330" as="targetPoint" />
          </mxGeometry>
        </mxCell>
        <mxCell id="UImh5uyEVB4ngB7Q_Of0-70" value="" style="endArrow=none;html=1;rounded=0;fillColor=#ffe6cc;strokeColor=#FF8000;strokeWidth=2;" parent="1" edge="1">
          <mxGeometry width="50" height="50" relative="1" as="geometry">
            <mxPoint x="1400" y="330" as="sourcePoint" />
            <mxPoint x="1400" y="540" as="targetPoint" />
          </mxGeometry>
        </mxCell>
        <mxCell id="UImh5uyEVB4ngB7Q_Of0-71" value="" style="endArrow=none;html=1;rounded=0;fillColor=#ffe6cc;strokeColor=#FF8000;strokeWidth=2;" parent="1" edge="1">
          <mxGeometry width="50" height="50" relative="1" as="geometry">
            <mxPoint x="1400" y="540" as="sourcePoint" />
            <mxPoint x="2200" y="540" as="targetPoint" />
          </mxGeometry>
        </mxCell>
        <mxCell id="UImh5uyEVB4ngB7Q_Of0-72" value="&lt;span style=&quot;font-size: 18px;&quot;&gt;Apps on&lt;/span&gt;&lt;div&gt;&lt;span style=&quot;font-size: 18px;&quot;&gt;Bare Metal&lt;/span&gt;&lt;/div&gt;" style="text;strokeColor=none;fillColor=none;html=1;fontSize=24;fontStyle=1;verticalAlign=middle;align=center;" parent="1" vertex="1">
          <mxGeometry x="90" y="860" width="100" height="40" as="geometry" />
        </mxCell>
        <mxCell id="UImh5uyEVB4ngB7Q_Of0-73" value="&lt;span style=&quot;font-size: 18px;&quot;&gt;Apps on&lt;/span&gt;&lt;div&gt;&lt;span style=&quot;font-size: 18px;&quot;&gt;Type 1 Hypervisor&lt;/span&gt;&lt;/div&gt;" style="text;strokeColor=none;fillColor=none;html=1;fontSize=24;fontStyle=1;verticalAlign=middle;align=center;" parent="1" vertex="1">
          <mxGeometry x="450" y="860" width="100" height="40" as="geometry" />
        </mxCell>
        <mxCell id="UImh5uyEVB4ngB7Q_Of0-74" value="&lt;span style=&quot;font-size: 18px;&quot;&gt;Apps on&amp;nbsp;&lt;/span&gt;&lt;div&gt;&lt;span style=&quot;font-size: 18px;&quot;&gt;Kubernetes on&lt;/span&gt;&lt;/div&gt;&lt;div&gt;&lt;span style=&quot;font-size: 18px;&quot;&gt;Type 1 Hypervisor&lt;/span&gt;&lt;/div&gt;" style="text;strokeColor=none;fillColor=none;html=1;fontSize=24;fontStyle=1;verticalAlign=middle;align=center;" parent="1" vertex="1">
          <mxGeometry x="810" y="870" width="100" height="40" as="geometry" />
        </mxCell>
        <mxCell id="UImh5uyEVB4ngB7Q_Of0-75" value="&lt;span style=&quot;font-size: 18px;&quot;&gt;Apps on&lt;/span&gt;&lt;div&gt;&lt;span style=&quot;font-size: 18px;&quot;&gt;OS Virtualization on&amp;nbsp;&lt;/span&gt;&lt;div&gt;&lt;span style=&quot;font-size: 18px;&quot;&gt;Kubernetes on&amp;nbsp;&lt;/span&gt;&lt;div&gt;&lt;span style=&quot;font-size: 18px;&quot;&gt;Type 1 Hypervisor&lt;/span&gt;&lt;/div&gt;&lt;/div&gt;&lt;/div&gt;" style="text;strokeColor=none;fillColor=none;html=1;fontSize=24;fontStyle=1;verticalAlign=middle;align=center;" parent="1" vertex="1">
          <mxGeometry x="1170" y="880" width="100" height="40" as="geometry" />
        </mxCell>
        <mxCell id="UImh5uyEVB4ngB7Q_Of0-76" value="&lt;span style=&quot;font-size: 18px;&quot;&gt;Apps on&amp;nbsp;&lt;/span&gt;&lt;div&gt;&lt;span style=&quot;font-size: 18px;&quot;&gt;OS Virtualization on&lt;/span&gt;&lt;div&gt;&lt;span style=&quot;font-size: 18px;&quot;&gt;Kubernetes on&amp;nbsp;&lt;/span&gt;&lt;div&gt;&lt;span style=&quot;font-size: 18px;&quot;&gt;Bare Metal&lt;/span&gt;&lt;/div&gt;&lt;/div&gt;&lt;/div&gt;" style="text;strokeColor=none;fillColor=none;html=1;fontSize=24;fontStyle=1;verticalAlign=middle;align=center;" parent="1" vertex="1">
          <mxGeometry x="1530" y="880" width="100" height="40" as="geometry" />
        </mxCell>
        <mxCell id="UImh5uyEVB4ngB7Q_Of0-78" value="&lt;span style=&quot;font-size: 18px;&quot;&gt;Apps on&amp;nbsp;&lt;/span&gt;&lt;div&gt;&lt;span style=&quot;font-size: 18px; background-color: initial;&quot;&gt;Kubernetes on&amp;nbsp;&lt;/span&gt;&lt;div&gt;&lt;div&gt;&lt;span style=&quot;font-size: 18px;&quot;&gt;Bare Metal&lt;/span&gt;&lt;/div&gt;&lt;/div&gt;&lt;/div&gt;" style="text;strokeColor=none;fillColor=none;html=1;fontSize=24;fontStyle=1;verticalAlign=middle;align=center;" parent="1" vertex="1">
          <mxGeometry x="1890" y="880" width="100" height="40" as="geometry" />
        </mxCell>
        <mxCell id="UImh5uyEVB4ngB7Q_Of0-79" value="Portworx Layer" style="text;html=1;align=center;verticalAlign=middle;resizable=0;points=[];autosize=1;strokeColor=none;fillColor=none;fontStyle=1" parent="1" vertex="1">
          <mxGeometry x="2100" y="514" width="100" height="30" as="geometry" />
        </mxCell>
        <mxCell id="UImh5uyEVB4ngB7Q_Of0-81" value="Portworx Layer" style="text;html=1;align=center;verticalAlign=middle;resizable=0;points=[];autosize=1;strokeColor=none;fillColor=none;fontStyle=1" parent="1" vertex="1">
          <mxGeometry x="620" y="300" width="100" height="30" as="geometry" />
        </mxCell>
      </root>
    </mxGraphModel>
  </diagram>
  <diagram id="IETApUdHfvGu0hx1d6i-" name="Ctrix DaaS High Level">
    <mxGraphModel dx="1914" dy="966" grid="1" gridSize="10" guides="1" tooltips="1" connect="1" arrows="1" fold="1" page="1" pageScale="1" pageWidth="850" pageHeight="1100" math="0" shadow="0">
      <root>
        <mxCell id="0" />
        <mxCell id="1" parent="0" />
        <mxCell id="RVZsP1NE-ctn8FHNv0Dj-1" value="" style="rounded=0;whiteSpace=wrap;html=1;" vertex="1" parent="1">
          <mxGeometry x="480" y="40" width="550" height="290" as="geometry" />
        </mxCell>
        <mxCell id="RVZsP1NE-ctn8FHNv0Dj-2" value="On-Prem" style="rounded=0;whiteSpace=wrap;html=1;align=right;verticalAlign=top;" vertex="1" parent="1">
          <mxGeometry x="20" y="550" width="660" height="390" as="geometry" />
        </mxCell>
        <mxCell id="RVZsP1NE-ctn8FHNv0Dj-3" value="Google Cloud Platform" style="rounded=0;whiteSpace=wrap;html=1;align=right;verticalAlign=top;" vertex="1" parent="1">
          <mxGeometry x="860" y="550" width="660" height="390" as="geometry" />
        </mxCell>
        <mxCell id="RVZsP1NE-ctn8FHNv0Dj-22" style="edgeStyle=orthogonalEdgeStyle;rounded=0;orthogonalLoop=1;jettySize=auto;html=1;exitX=0.5;exitY=1;exitDx=0;exitDy=0;entryX=0.5;entryY=0;entryDx=0;entryDy=0;strokeColor=#00FF00;" edge="1" parent="1" source="RVZsP1NE-ctn8FHNv0Dj-4" target="RVZsP1NE-ctn8FHNv0Dj-5">
          <mxGeometry relative="1" as="geometry" />
        </mxCell>
        <mxCell id="RVZsP1NE-ctn8FHNv0Dj-4" value="Firewall" style="rounded=0;whiteSpace=wrap;html=1;" vertex="1" parent="1">
          <mxGeometry x="690" y="30" width="120" height="30" as="geometry" />
        </mxCell>
        <mxCell id="RVZsP1NE-ctn8FHNv0Dj-23" style="edgeStyle=orthogonalEdgeStyle;rounded=0;orthogonalLoop=1;jettySize=auto;html=1;exitX=0.5;exitY=1;exitDx=0;exitDy=0;entryX=0.5;entryY=0;entryDx=0;entryDy=0;strokeColor=#00FF00;" edge="1" parent="1" source="RVZsP1NE-ctn8FHNv0Dj-5" target="RVZsP1NE-ctn8FHNv0Dj-8">
          <mxGeometry relative="1" as="geometry" />
        </mxCell>
        <mxCell id="RVZsP1NE-ctn8FHNv0Dj-32" style="edgeStyle=orthogonalEdgeStyle;rounded=0;orthogonalLoop=1;jettySize=auto;html=1;exitX=0;exitY=0.5;exitDx=0;exitDy=0;curved=1;strokeColor=#00FF00;entryX=0.5;entryY=0;entryDx=0;entryDy=0;" edge="1" parent="1" source="RVZsP1NE-ctn8FHNv0Dj-5" target="RVZsP1NE-ctn8FHNv0Dj-7">
          <mxGeometry relative="1" as="geometry">
            <mxPoint x="120" y="650" as="targetPoint" />
          </mxGeometry>
        </mxCell>
        <mxCell id="RVZsP1NE-ctn8FHNv0Dj-5" value="Citrix Gateway" style="rounded=0;whiteSpace=wrap;html=1;" vertex="1" parent="1">
          <mxGeometry x="690" y="100" width="120" height="30" as="geometry" />
        </mxCell>
        <mxCell id="RVZsP1NE-ctn8FHNv0Dj-40" style="edgeStyle=orthogonalEdgeStyle;rounded=0;orthogonalLoop=1;jettySize=auto;html=1;exitX=0.5;exitY=1;exitDx=0;exitDy=0;entryX=0.5;entryY=0;entryDx=0;entryDy=0;strokeColor=#00FF00;" edge="1" parent="1" source="RVZsP1NE-ctn8FHNv0Dj-6" target="RVZsP1NE-ctn8FHNv0Dj-33">
          <mxGeometry relative="1" as="geometry" />
        </mxCell>
        <mxCell id="RVZsP1NE-ctn8FHNv0Dj-41" style="edgeStyle=orthogonalEdgeStyle;rounded=0;orthogonalLoop=1;jettySize=auto;html=1;exitX=0.5;exitY=1;exitDx=0;exitDy=0;entryX=0.5;entryY=0;entryDx=0;entryDy=0;strokeColor=#00FF00;" edge="1" parent="1" source="RVZsP1NE-ctn8FHNv0Dj-6" target="RVZsP1NE-ctn8FHNv0Dj-34">
          <mxGeometry relative="1" as="geometry" />
        </mxCell>
        <mxCell id="RVZsP1NE-ctn8FHNv0Dj-6" value="Cloud Connector" style="rounded=0;whiteSpace=wrap;html=1;" vertex="1" parent="1">
          <mxGeometry x="280" y="570" width="120" height="30" as="geometry" />
        </mxCell>
        <mxCell id="RVZsP1NE-ctn8FHNv0Dj-38" style="edgeStyle=orthogonalEdgeStyle;rounded=0;orthogonalLoop=1;jettySize=auto;html=1;exitX=0.5;exitY=1;exitDx=0;exitDy=0;entryX=0.5;entryY=0;entryDx=0;entryDy=0;strokeColor=#00FF00;" edge="1" parent="1" source="RVZsP1NE-ctn8FHNv0Dj-7" target="RVZsP1NE-ctn8FHNv0Dj-35">
          <mxGeometry relative="1" as="geometry" />
        </mxCell>
        <mxCell id="RVZsP1NE-ctn8FHNv0Dj-39" style="edgeStyle=orthogonalEdgeStyle;rounded=0;orthogonalLoop=1;jettySize=auto;html=1;exitX=0.5;exitY=1;exitDx=0;exitDy=0;entryX=0.5;entryY=0;entryDx=0;entryDy=0;strokeColor=#00FF00;" edge="1" parent="1" source="RVZsP1NE-ctn8FHNv0Dj-7" target="RVZsP1NE-ctn8FHNv0Dj-36">
          <mxGeometry relative="1" as="geometry" />
        </mxCell>
        <mxCell id="RVZsP1NE-ctn8FHNv0Dj-7" value="StoreFront" style="rounded=0;whiteSpace=wrap;html=1;" vertex="1" parent="1">
          <mxGeometry x="60" y="570" width="120" height="30" as="geometry" />
        </mxCell>
        <mxCell id="RVZsP1NE-ctn8FHNv0Dj-24" style="edgeStyle=orthogonalEdgeStyle;rounded=0;orthogonalLoop=1;jettySize=auto;html=1;exitX=0.5;exitY=1;exitDx=0;exitDy=0;entryX=0.5;entryY=0;entryDx=0;entryDy=0;strokeColor=#FF8000;" edge="1" parent="1" source="RVZsP1NE-ctn8FHNv0Dj-8" target="RVZsP1NE-ctn8FHNv0Dj-20">
          <mxGeometry relative="1" as="geometry" />
        </mxCell>
        <mxCell id="RVZsP1NE-ctn8FHNv0Dj-8" value="Workspace" style="rounded=0;whiteSpace=wrap;html=1;" vertex="1" parent="1">
          <mxGeometry x="690" y="170" width="120" height="30" as="geometry" />
        </mxCell>
        <mxCell id="RVZsP1NE-ctn8FHNv0Dj-10" value="Citrix Analytics" style="rounded=0;whiteSpace=wrap;html=1;" vertex="1" parent="1">
          <mxGeometry x="887.5" y="160" width="80" height="40" as="geometry" />
        </mxCell>
        <mxCell id="RVZsP1NE-ctn8FHNv0Dj-11" value="SQL" style="shape=cylinder3;whiteSpace=wrap;html=1;boundedLbl=1;backgroundOutline=1;size=15;" vertex="1" parent="1">
          <mxGeometry x="910" y="227" width="35" height="50" as="geometry" />
        </mxCell>
        <mxCell id="RVZsP1NE-ctn8FHNv0Dj-12" style="edgeStyle=orthogonalEdgeStyle;rounded=0;orthogonalLoop=1;jettySize=auto;html=1;exitX=1;exitY=0.5;exitDx=0;exitDy=0;entryX=0;entryY=0;entryDx=0;entryDy=30;entryPerimeter=0;startArrow=classic;startFill=1;" edge="1" parent="1" source="RVZsP1NE-ctn8FHNv0Dj-20" target="RVZsP1NE-ctn8FHNv0Dj-11">
          <mxGeometry relative="1" as="geometry">
            <mxPoint x="810" y="255" as="sourcePoint" />
          </mxGeometry>
        </mxCell>
        <mxCell id="RVZsP1NE-ctn8FHNv0Dj-13" style="edgeStyle=orthogonalEdgeStyle;rounded=0;orthogonalLoop=1;jettySize=auto;html=1;exitX=0.5;exitY=1;exitDx=0;exitDy=0;entryX=0.5;entryY=0;entryDx=0;entryDy=0;entryPerimeter=0;" edge="1" parent="1" source="RVZsP1NE-ctn8FHNv0Dj-10" target="RVZsP1NE-ctn8FHNv0Dj-11">
          <mxGeometry relative="1" as="geometry" />
        </mxCell>
        <mxCell id="RVZsP1NE-ctn8FHNv0Dj-17" style="edgeStyle=orthogonalEdgeStyle;rounded=0;orthogonalLoop=1;jettySize=auto;html=1;exitX=1;exitY=0.5;exitDx=0;exitDy=0;entryX=0;entryY=0.5;entryDx=0;entryDy=0;startArrow=classic;startFill=1;" edge="1" parent="1" source="RVZsP1NE-ctn8FHNv0Dj-14" target="RVZsP1NE-ctn8FHNv0Dj-20">
          <mxGeometry relative="1" as="geometry">
            <mxPoint x="690" y="255" as="targetPoint" />
          </mxGeometry>
        </mxCell>
        <mxCell id="RVZsP1NE-ctn8FHNv0Dj-14" value="Studio / Environment Manager" style="rounded=0;whiteSpace=wrap;html=1;" vertex="1" parent="1">
          <mxGeometry x="490" y="170" width="80" height="40" as="geometry" />
        </mxCell>
        <mxCell id="RVZsP1NE-ctn8FHNv0Dj-18" style="edgeStyle=orthogonalEdgeStyle;rounded=0;orthogonalLoop=1;jettySize=auto;html=1;exitX=1;exitY=0.5;exitDx=0;exitDy=0;entryX=0;entryY=0.5;entryDx=0;entryDy=0;startArrow=classic;startFill=1;" edge="1" parent="1" source="RVZsP1NE-ctn8FHNv0Dj-15" target="RVZsP1NE-ctn8FHNv0Dj-20">
          <mxGeometry relative="1" as="geometry">
            <mxPoint x="690" y="255" as="targetPoint" />
          </mxGeometry>
        </mxCell>
        <mxCell id="RVZsP1NE-ctn8FHNv0Dj-15" value="License Mgmt" style="rounded=0;whiteSpace=wrap;html=1;" vertex="1" parent="1">
          <mxGeometry x="490" y="225" width="80" height="40" as="geometry" />
        </mxCell>
        <mxCell id="RVZsP1NE-ctn8FHNv0Dj-21" style="edgeStyle=orthogonalEdgeStyle;rounded=0;orthogonalLoop=1;jettySize=auto;html=1;exitX=1;exitY=0.5;exitDx=0;exitDy=0;entryX=0;entryY=0.5;entryDx=0;entryDy=0;startArrow=classic;startFill=1;" edge="1" parent="1" source="RVZsP1NE-ctn8FHNv0Dj-16" target="RVZsP1NE-ctn8FHNv0Dj-20">
          <mxGeometry relative="1" as="geometry" />
        </mxCell>
        <mxCell id="RVZsP1NE-ctn8FHNv0Dj-16" value="Director" style="rounded=0;whiteSpace=wrap;html=1;" vertex="1" parent="1">
          <mxGeometry x="490" y="275" width="80" height="40" as="geometry" />
        </mxCell>
        <mxCell id="RVZsP1NE-ctn8FHNv0Dj-25" style="edgeStyle=orthogonalEdgeStyle;rounded=0;orthogonalLoop=1;jettySize=auto;html=1;exitX=0.5;exitY=1;exitDx=0;exitDy=0;entryX=0.5;entryY=0;entryDx=0;entryDy=0;strokeColor=#FF8000;" edge="1" parent="1" source="RVZsP1NE-ctn8FHNv0Dj-20" target="RVZsP1NE-ctn8FHNv0Dj-6">
          <mxGeometry relative="1" as="geometry" />
        </mxCell>
        <mxCell id="RVZsP1NE-ctn8FHNv0Dj-58" style="edgeStyle=orthogonalEdgeStyle;rounded=0;orthogonalLoop=1;jettySize=auto;html=1;exitX=0.5;exitY=1;exitDx=0;exitDy=0;entryX=0.5;entryY=0;entryDx=0;entryDy=0;strokeColor=#FF8000;" edge="1" parent="1" source="RVZsP1NE-ctn8FHNv0Dj-20" target="RVZsP1NE-ctn8FHNv0Dj-57">
          <mxGeometry relative="1" as="geometry" />
        </mxCell>
        <mxCell id="RVZsP1NE-ctn8FHNv0Dj-20" value="&amp;nbsp;Controller" style="ellipse;whiteSpace=wrap;html=1;aspect=fixed;" vertex="1" parent="1">
          <mxGeometry x="717.5" y="225" width="65" height="65" as="geometry" />
        </mxCell>
        <mxCell id="RVZsP1NE-ctn8FHNv0Dj-54" style="rounded=0;orthogonalLoop=1;jettySize=auto;html=1;exitX=0.5;exitY=1;exitDx=0;exitDy=0;entryX=0.5;entryY=0;entryDx=0;entryDy=0;strokeColor=#FF8000;" edge="1" parent="1" source="RVZsP1NE-ctn8FHNv0Dj-33" target="RVZsP1NE-ctn8FHNv0Dj-48">
          <mxGeometry relative="1" as="geometry" />
        </mxCell>
        <mxCell id="RVZsP1NE-ctn8FHNv0Dj-33" value="Windows Desktops" style="rounded=0;whiteSpace=wrap;html=1;" vertex="1" parent="1">
          <mxGeometry x="380" y="650" width="120" height="30" as="geometry" />
        </mxCell>
        <mxCell id="RVZsP1NE-ctn8FHNv0Dj-55" style="rounded=0;orthogonalLoop=1;jettySize=auto;html=1;exitX=0.5;exitY=1;exitDx=0;exitDy=0;entryX=0.5;entryY=0;entryDx=0;entryDy=0;strokeColor=#FF8000;" edge="1" parent="1" source="RVZsP1NE-ctn8FHNv0Dj-34" target="RVZsP1NE-ctn8FHNv0Dj-48">
          <mxGeometry relative="1" as="geometry" />
        </mxCell>
        <mxCell id="RVZsP1NE-ctn8FHNv0Dj-34" value="Linux Desktops" style="rounded=0;whiteSpace=wrap;html=1;" vertex="1" parent="1">
          <mxGeometry x="540" y="650" width="120" height="30" as="geometry" />
        </mxCell>
        <mxCell id="RVZsP1NE-ctn8FHNv0Dj-52" style="rounded=0;orthogonalLoop=1;jettySize=auto;html=1;exitX=0.5;exitY=1;exitDx=0;exitDy=0;entryX=0.5;entryY=0;entryDx=0;entryDy=0;strokeColor=#FF8000;" edge="1" parent="1" source="RVZsP1NE-ctn8FHNv0Dj-35" target="RVZsP1NE-ctn8FHNv0Dj-48">
          <mxGeometry relative="1" as="geometry" />
        </mxCell>
        <mxCell id="RVZsP1NE-ctn8FHNv0Dj-35" value="Windows Apps" style="rounded=0;whiteSpace=wrap;html=1;" vertex="1" parent="1">
          <mxGeometry x="60" y="650" width="120" height="30" as="geometry" />
        </mxCell>
        <mxCell id="RVZsP1NE-ctn8FHNv0Dj-53" style="rounded=0;orthogonalLoop=1;jettySize=auto;html=1;exitX=0.5;exitY=1;exitDx=0;exitDy=0;entryX=0.5;entryY=0;entryDx=0;entryDy=0;strokeColor=#FF8000;" edge="1" parent="1" source="RVZsP1NE-ctn8FHNv0Dj-36" target="RVZsP1NE-ctn8FHNv0Dj-48">
          <mxGeometry relative="1" as="geometry" />
        </mxCell>
        <mxCell id="RVZsP1NE-ctn8FHNv0Dj-36" value="Linux Applications" style="rounded=0;whiteSpace=wrap;html=1;" vertex="1" parent="1">
          <mxGeometry x="220" y="650" width="120" height="30" as="geometry" />
        </mxCell>
        <mxCell id="RVZsP1NE-ctn8FHNv0Dj-42" value="" style="endArrow=classic;html=1;rounded=0;" edge="1" parent="1">
          <mxGeometry width="50" height="50" relative="1" as="geometry">
            <mxPoint x="1160" y="130" as="sourcePoint" />
            <mxPoint x="1200" y="130" as="targetPoint" />
          </mxGeometry>
        </mxCell>
        <mxCell id="RVZsP1NE-ctn8FHNv0Dj-43" value="" style="endArrow=classic;html=1;rounded=0;strokeColor=#00FF00;" edge="1" parent="1">
          <mxGeometry width="50" height="50" relative="1" as="geometry">
            <mxPoint x="1160" y="160" as="sourcePoint" />
            <mxPoint x="1200" y="160" as="targetPoint" />
          </mxGeometry>
        </mxCell>
        <mxCell id="RVZsP1NE-ctn8FHNv0Dj-44" value="" style="endArrow=classic;html=1;rounded=0;strokeColor=#FF8000;" edge="1" parent="1">
          <mxGeometry width="50" height="50" relative="1" as="geometry">
            <mxPoint x="1160" y="189.5" as="sourcePoint" />
            <mxPoint x="1200" y="189.5" as="targetPoint" />
          </mxGeometry>
        </mxCell>
        <mxCell id="RVZsP1NE-ctn8FHNv0Dj-45" value="Backend Communication" style="text;html=1;align=center;verticalAlign=middle;resizable=0;points=[];autosize=1;strokeColor=none;fillColor=none;" vertex="1" parent="1">
          <mxGeometry x="1200" y="114" width="160" height="30" as="geometry" />
        </mxCell>
        <mxCell id="RVZsP1NE-ctn8FHNv0Dj-46" value="Virtual Channels" style="text;html=1;align=center;verticalAlign=middle;resizable=0;points=[];autosize=1;strokeColor=none;fillColor=none;" vertex="1" parent="1">
          <mxGeometry x="1205" y="145" width="110" height="30" as="geometry" />
        </mxCell>
        <mxCell id="RVZsP1NE-ctn8FHNv0Dj-47" value="Network/Mgmt" style="text;html=1;align=center;verticalAlign=middle;resizable=0;points=[];autosize=1;strokeColor=none;fillColor=none;" vertex="1" parent="1">
          <mxGeometry x="1205" y="175" width="100" height="30" as="geometry" />
        </mxCell>
        <mxCell id="RVZsP1NE-ctn8FHNv0Dj-56" style="edgeStyle=orthogonalEdgeStyle;rounded=0;orthogonalLoop=1;jettySize=auto;html=1;exitX=0.5;exitY=1;exitDx=0;exitDy=0;entryX=0.5;entryY=0;entryDx=0;entryDy=0;strokeColor=#FF8000;" edge="1" parent="1" source="RVZsP1NE-ctn8FHNv0Dj-48" target="RVZsP1NE-ctn8FHNv0Dj-49">
          <mxGeometry relative="1" as="geometry" />
        </mxCell>
        <mxCell id="dDGo0JM_zP01NbMm41hp-4" style="edgeStyle=orthogonalEdgeStyle;rounded=0;orthogonalLoop=1;jettySize=auto;html=1;exitX=0;exitY=0.5;exitDx=0;exitDy=0;entryX=0;entryY=0.5;entryDx=0;entryDy=0;strokeColor=#FF8000;" edge="1" parent="1" source="RVZsP1NE-ctn8FHNv0Dj-48" target="dDGo0JM_zP01NbMm41hp-3">
          <mxGeometry relative="1" as="geometry" />
        </mxCell>
        <mxCell id="RVZsP1NE-ctn8FHNv0Dj-48" value="Citrix Hypervisor&lt;div&gt;Cisco UCS X&lt;/div&gt;" style="rounded=0;whiteSpace=wrap;html=1;" vertex="1" parent="1">
          <mxGeometry x="60" y="720" width="600" height="50" as="geometry" />
        </mxCell>
        <mxCell id="RVZsP1NE-ctn8FHNv0Dj-49" value="Storage&lt;div&gt;Pure storage&lt;/div&gt;" style="rounded=0;whiteSpace=wrap;html=1;" vertex="1" parent="1">
          <mxGeometry x="60" y="790" width="600" height="50" as="geometry" />
        </mxCell>
        <mxCell id="RVZsP1NE-ctn8FHNv0Dj-50" value="Active Directory" style="rounded=1;whiteSpace=wrap;html=1;" vertex="1" parent="1">
          <mxGeometry x="490" y="860" width="120" height="60" as="geometry" />
        </mxCell>
        <mxCell id="RVZsP1NE-ctn8FHNv0Dj-51" value="App Layering&lt;div&gt;(function)&lt;/div&gt;" style="rounded=1;whiteSpace=wrap;html=1;dashed=1;dashPattern=8 8;" vertex="1" parent="1">
          <mxGeometry x="320" y="860" width="120" height="60" as="geometry" />
        </mxCell>
        <mxCell id="dDGo0JM_zP01NbMm41hp-7" style="edgeStyle=orthogonalEdgeStyle;rounded=0;orthogonalLoop=1;jettySize=auto;html=1;exitX=0.5;exitY=1;exitDx=0;exitDy=0;entryX=0.5;entryY=0;entryDx=0;entryDy=0;strokeColor=#00FF00;" edge="1" parent="1" source="RVZsP1NE-ctn8FHNv0Dj-57" target="dDGo0JM_zP01NbMm41hp-5">
          <mxGeometry relative="1" as="geometry" />
        </mxCell>
        <mxCell id="dDGo0JM_zP01NbMm41hp-8" style="edgeStyle=orthogonalEdgeStyle;rounded=0;orthogonalLoop=1;jettySize=auto;html=1;exitX=0.5;exitY=1;exitDx=0;exitDy=0;entryX=0.5;entryY=0;entryDx=0;entryDy=0;strokeColor=#00FF00;" edge="1" parent="1" source="RVZsP1NE-ctn8FHNv0Dj-57" target="dDGo0JM_zP01NbMm41hp-6">
          <mxGeometry relative="1" as="geometry" />
        </mxCell>
        <mxCell id="RVZsP1NE-ctn8FHNv0Dj-57" value="Cloud Connector" style="rounded=0;whiteSpace=wrap;html=1;" vertex="1" parent="1">
          <mxGeometry x="1120" y="570" width="120" height="30" as="geometry" />
        </mxCell>
        <mxCell id="dDGo0JM_zP01NbMm41hp-3" value="Nasuni File Share" style="rounded=0;whiteSpace=wrap;html=1;" vertex="1" parent="1">
          <mxGeometry x="60" y="860" width="220" height="50" as="geometry" />
        </mxCell>
        <mxCell id="dDGo0JM_zP01NbMm41hp-10" style="rounded=0;orthogonalLoop=1;jettySize=auto;html=1;exitX=0.5;exitY=1;exitDx=0;exitDy=0;entryX=0.5;entryY=0;entryDx=0;entryDy=0;strokeColor=#FF8000;" edge="1" parent="1" source="dDGo0JM_zP01NbMm41hp-5" target="dDGo0JM_zP01NbMm41hp-9">
          <mxGeometry relative="1" as="geometry" />
        </mxCell>
        <mxCell id="dDGo0JM_zP01NbMm41hp-5" value="Windows Desktops" style="rounded=0;whiteSpace=wrap;html=1;" vertex="1" parent="1">
          <mxGeometry x="1000" y="650" width="120" height="30" as="geometry" />
        </mxCell>
        <mxCell id="dDGo0JM_zP01NbMm41hp-11" style="rounded=0;orthogonalLoop=1;jettySize=auto;html=1;exitX=0.5;exitY=1;exitDx=0;exitDy=0;entryX=0.5;entryY=0;entryDx=0;entryDy=0;strokeColor=#FF8000;" edge="1" parent="1" source="dDGo0JM_zP01NbMm41hp-6" target="dDGo0JM_zP01NbMm41hp-9">
          <mxGeometry relative="1" as="geometry" />
        </mxCell>
        <mxCell id="dDGo0JM_zP01NbMm41hp-6" value="Linux Desktops" style="rounded=0;whiteSpace=wrap;html=1;" vertex="1" parent="1">
          <mxGeometry x="1240" y="650" width="120" height="30" as="geometry" />
        </mxCell>
        <mxCell id="dDGo0JM_zP01NbMm41hp-14" style="edgeStyle=orthogonalEdgeStyle;rounded=0;orthogonalLoop=1;jettySize=auto;html=1;exitX=0.5;exitY=1;exitDx=0;exitDy=0;entryX=0.5;entryY=0;entryDx=0;entryDy=0;strokeColor=#FF8000;" edge="1" parent="1" source="dDGo0JM_zP01NbMm41hp-9" target="dDGo0JM_zP01NbMm41hp-12">
          <mxGeometry relative="1" as="geometry" />
        </mxCell>
        <mxCell id="dDGo0JM_zP01NbMm41hp-16" style="edgeStyle=orthogonalEdgeStyle;rounded=0;orthogonalLoop=1;jettySize=auto;html=1;exitX=1;exitY=0.5;exitDx=0;exitDy=0;entryX=1;entryY=0.5;entryDx=0;entryDy=0;strokeColor=#FF8000;" edge="1" parent="1" source="dDGo0JM_zP01NbMm41hp-9" target="dDGo0JM_zP01NbMm41hp-15">
          <mxGeometry relative="1" as="geometry" />
        </mxCell>
        <mxCell id="dDGo0JM_zP01NbMm41hp-9" value="&lt;div&gt;Google Compute Engine&lt;/div&gt;Google Hypervisor" style="rounded=0;whiteSpace=wrap;html=1;" vertex="1" parent="1">
          <mxGeometry x="880" y="720" width="600" height="50" as="geometry" />
        </mxCell>
        <mxCell id="dDGo0JM_zP01NbMm41hp-12" value="Storage&lt;div&gt;Pure storage&lt;/div&gt;" style="rounded=0;whiteSpace=wrap;html=1;" vertex="1" parent="1">
          <mxGeometry x="880" y="790" width="600" height="50" as="geometry" />
        </mxCell>
        <mxCell id="dDGo0JM_zP01NbMm41hp-15" value="Google Filestore" style="rounded=0;whiteSpace=wrap;html=1;" vertex="1" parent="1">
          <mxGeometry x="1260" y="865" width="220" height="50" as="geometry" />
        </mxCell>
        <mxCell id="dDGo0JM_zP01NbMm41hp-17" value="App Layering&lt;div&gt;(function)&lt;/div&gt;" style="rounded=1;whiteSpace=wrap;html=1;dashed=1;dashPattern=8 8;" vertex="1" parent="1">
          <mxGeometry x="1120" y="855" width="120" height="60" as="geometry" />
        </mxCell>
        <mxCell id="dDGo0JM_zP01NbMm41hp-18" style="rounded=0;orthogonalLoop=1;jettySize=auto;html=1;exitX=1;exitY=0.5;exitDx=0;exitDy=0;entryX=0.002;entryY=0.358;entryDx=0;entryDy=0;entryPerimeter=0;startArrow=classic;startFill=1;endArrow=none;endFill=0;strokeColor=#FF8000;" edge="1" parent="1" source="RVZsP1NE-ctn8FHNv0Dj-50" target="RVZsP1NE-ctn8FHNv0Dj-3">
          <mxGeometry relative="1" as="geometry" />
        </mxCell>
      </root>
    </mxGraphModel>
  </diagram>
</mxfile>
